<mxfile host="app.diagrams.net" agent="Mozilla/5.0 (Windows NT 10.0; Win64; x64) AppleWebKit/537.36 (KHTML, like Gecko) Chrome/130.0.0.0 Safari/537.36 Edg/130.0.0.0" version="24.8.4">
  <diagram name="Page-1" id="WjUygD5bh9wIFqq01n1m">
    <mxGraphModel dx="1722" dy="479" grid="1" gridSize="10" guides="1" tooltips="1" connect="1" arrows="1" fold="1" page="1" pageScale="1" pageWidth="850" pageHeight="1100" math="0" shadow="0">
      <root>
        <mxCell id="0" />
        <mxCell id="1" parent="0" />
        <mxCell id="COYKUvPmXzoca91hGqGe-4" value="green" style="swimlane;whiteSpace=wrap;html=1;" vertex="1" parent="1">
          <mxGeometry x="10" y="190" width="1265" height="450" as="geometry" />
        </mxCell>
        <mxCell id="COYKUvPmXzoca91hGqGe-5" value="yellow" style="swimlane;whiteSpace=wrap;html=1;" vertex="1" parent="COYKUvPmXzoca91hGqGe-4">
          <mxGeometry x="160" y="40" width="640" height="270" as="geometry" />
        </mxCell>
        <mxCell id="COYKUvPmXzoca91hGqGe-6" value="red" style="swimlane;whiteSpace=wrap;html=1;" vertex="1" parent="COYKUvPmXzoca91hGqGe-5">
          <mxGeometry x="150" y="40" width="370" height="160" as="geometry" />
        </mxCell>
        <mxCell id="COYKUvPmXzoca91hGqGe-23" value="" style="ellipse;html=1;shape=startState;fillColor=#000000;strokeColor=#000000;" vertex="1" parent="COYKUvPmXzoca91hGqGe-6">
          <mxGeometry x="20" y="45" width="30" height="30" as="geometry" />
        </mxCell>
        <mxCell id="COYKUvPmXzoca91hGqGe-27" value="vehicle must drop pedestrian signal&lt;div&gt;may be green&amp;nbsp; duration 30-60 sec&amp;nbsp;&lt;/div&gt;" style="text;html=1;align=center;verticalAlign=middle;resizable=0;points=[];autosize=1;strokeColor=#82b366;fillColor=#d5e8d4;" vertex="1" parent="COYKUvPmXzoca91hGqGe-6">
          <mxGeometry x="80" y="75" width="210" height="40" as="geometry" />
        </mxCell>
        <mxCell id="COYKUvPmXzoca91hGqGe-48" value="" style="endArrow=none;dashed=1;html=1;dashPattern=1 3;strokeWidth=2;rounded=0;" edge="1" parent="COYKUvPmXzoca91hGqGe-6">
          <mxGeometry width="50" height="50" relative="1" as="geometry">
            <mxPoint x="-200" y="100" as="sourcePoint" />
            <mxPoint x="80" y="90" as="targetPoint" />
            <Array as="points">
              <mxPoint x="-100" y="-70" />
            </Array>
          </mxGeometry>
        </mxCell>
        <mxCell id="COYKUvPmXzoca91hGqGe-19" value="" style="ellipse;html=1;shape=startState;fillColor=#000000;strokeColor=#ff0000;" vertex="1" parent="COYKUvPmXzoca91hGqGe-5">
          <mxGeometry x="40" y="130" width="30" height="30" as="geometry" />
        </mxCell>
        <mxCell id="COYKUvPmXzoca91hGqGe-28" value="prepare to stop&amp;nbsp;&lt;div&gt;duration&lt;div&gt;3-5 secs&lt;/div&gt;&lt;/div&gt;" style="text;html=1;align=center;verticalAlign=middle;resizable=0;points=[];autosize=1;fillColor=#d5e8d4;strokeColor=#82b366;" vertex="1" parent="COYKUvPmXzoca91hGqGe-5">
          <mxGeometry x="10" y="50" width="110" height="60" as="geometry" />
        </mxCell>
        <mxCell id="COYKUvPmXzoca91hGqGe-39" value="" style="endArrow=classic;html=1;rounded=0;" edge="1" parent="COYKUvPmXzoca91hGqGe-5">
          <mxGeometry width="50" height="50" relative="1" as="geometry">
            <mxPoint x="420" y="220" as="sourcePoint" />
            <mxPoint x="560" y="330" as="targetPoint" />
          </mxGeometry>
        </mxCell>
        <mxCell id="COYKUvPmXzoca91hGqGe-44" value="" style="endArrow=none;dashed=1;html=1;dashPattern=1 3;strokeWidth=2;rounded=0;" edge="1" parent="COYKUvPmXzoca91hGqGe-5">
          <mxGeometry width="50" height="50" relative="1" as="geometry">
            <mxPoint x="-50" y="130" as="sourcePoint" />
            <mxPoint x="60" y="50" as="targetPoint" />
            <Array as="points">
              <mxPoint x="-40" />
            </Array>
          </mxGeometry>
        </mxCell>
        <mxCell id="COYKUvPmXzoca91hGqGe-47" value="" style="endArrow=classic;html=1;rounded=0;entryX=0.476;entryY=-0.012;entryDx=0;entryDy=0;entryPerimeter=0;" edge="1" parent="COYKUvPmXzoca91hGqGe-5" target="COYKUvPmXzoca91hGqGe-6">
          <mxGeometry width="50" height="50" relative="1" as="geometry">
            <mxPoint x="250" y="20" as="sourcePoint" />
            <mxPoint x="320" y="20" as="targetPoint" />
          </mxGeometry>
        </mxCell>
        <mxCell id="COYKUvPmXzoca91hGqGe-7" value="active" style="swimlane;whiteSpace=wrap;html=1;" vertex="1" parent="COYKUvPmXzoca91hGqGe-4">
          <mxGeometry x="30" y="190" width="100" height="70" as="geometry" />
        </mxCell>
        <mxCell id="COYKUvPmXzoca91hGqGe-20" value="" style="edgeStyle=orthogonalEdgeStyle;html=1;verticalAlign=bottom;endArrow=open;endSize=8;strokeColor=#000000;rounded=0;entryX=1;entryY=0.75;entryDx=0;entryDy=0;" edge="1" source="COYKUvPmXzoca91hGqGe-19" parent="COYKUvPmXzoca91hGqGe-4" target="COYKUvPmXzoca91hGqGe-7">
          <mxGeometry relative="1" as="geometry">
            <mxPoint x="215" y="270" as="targetPoint" />
          </mxGeometry>
        </mxCell>
        <mxCell id="COYKUvPmXzoca91hGqGe-21" value="" style="ellipse;html=1;shape=startState;fillColor=#000000;strokeColor=#ff0000;" vertex="1" parent="COYKUvPmXzoca91hGqGe-4">
          <mxGeometry x="65" y="70" width="30" height="30" as="geometry" />
        </mxCell>
        <mxCell id="COYKUvPmXzoca91hGqGe-22" value="" style="edgeStyle=orthogonalEdgeStyle;html=1;verticalAlign=bottom;endArrow=open;endSize=8;strokeColor=#000000;rounded=0;entryX=0.5;entryY=0;entryDx=0;entryDy=0;" edge="1" source="COYKUvPmXzoca91hGqGe-21" parent="COYKUvPmXzoca91hGqGe-4" target="COYKUvPmXzoca91hGqGe-7">
          <mxGeometry relative="1" as="geometry">
            <mxPoint x="80" y="160" as="targetPoint" />
          </mxGeometry>
        </mxCell>
        <mxCell id="COYKUvPmXzoca91hGqGe-35" value="" style="endArrow=classic;html=1;rounded=0;exitX=0.5;exitY=1;exitDx=0;exitDy=0;" edge="1" parent="COYKUvPmXzoca91hGqGe-4" source="COYKUvPmXzoca91hGqGe-7">
          <mxGeometry width="50" height="50" relative="1" as="geometry">
            <mxPoint x="40" y="310" as="sourcePoint" />
            <mxPoint x="800" y="130" as="targetPoint" />
            <Array as="points">
              <mxPoint x="90" y="380" />
              <mxPoint x="950" y="360" />
              <mxPoint x="950" y="130" />
            </Array>
          </mxGeometry>
        </mxCell>
        <mxCell id="COYKUvPmXzoca91hGqGe-36" value="transaction" style="text;html=1;align=center;verticalAlign=middle;resizable=0;points=[];autosize=1;strokeColor=none;fillColor=none;" vertex="1" parent="COYKUvPmXzoca91hGqGe-4">
          <mxGeometry x="950" y="170" width="80" height="30" as="geometry" />
        </mxCell>
        <mxCell id="COYKUvPmXzoca91hGqGe-40" value="transcation" style="text;html=1;align=center;verticalAlign=middle;resizable=0;points=[];autosize=1;strokeColor=none;fillColor=none;" vertex="1" parent="COYKUvPmXzoca91hGqGe-4">
          <mxGeometry x="660" y="318" width="80" height="30" as="geometry" />
        </mxCell>
        <mxCell id="COYKUvPmXzoca91hGqGe-41" value="vehicle can go pedestrian&lt;div&gt;are red&lt;/div&gt;" style="text;html=1;align=center;verticalAlign=middle;resizable=0;points=[];autosize=1;strokeColor=#82b366;fillColor=#d5e8d4;" vertex="1" parent="COYKUvPmXzoca91hGqGe-4">
          <mxGeometry x="950" y="200" width="160" height="40" as="geometry" />
        </mxCell>
        <mxCell id="COYKUvPmXzoca91hGqGe-42" value="duration :30-60 secs" style="text;html=1;align=center;verticalAlign=middle;resizable=0;points=[];autosize=1;strokeColor=#82b366;fillColor=#d5e8d4;" vertex="1" parent="COYKUvPmXzoca91hGqGe-4">
          <mxGeometry x="1110" y="130" width="130" height="30" as="geometry" />
        </mxCell>
        <mxCell id="COYKUvPmXzoca91hGqGe-43" value="" style="endArrow=classic;html=1;rounded=0;exitX=0;exitY=0;exitDx=0;exitDy=0;entryX=0.75;entryY=0;entryDx=0;entryDy=0;" edge="1" parent="COYKUvPmXzoca91hGqGe-4" target="COYKUvPmXzoca91hGqGe-7">
          <mxGeometry width="50" height="50" relative="1" as="geometry">
            <mxPoint x="339.3933982822018" y="134.69339828220183" as="sourcePoint" />
            <mxPoint x="30" y="35" as="targetPoint" />
            <Array as="points">
              <mxPoint x="230" y="30" />
              <mxPoint x="105" y="30" />
            </Array>
          </mxGeometry>
        </mxCell>
        <mxCell id="COYKUvPmXzoca91hGqGe-45" value="" style="endArrow=classic;html=1;rounded=0;entryX=0.07;entryY=-0.006;entryDx=0;entryDy=0;entryPerimeter=0;" edge="1" parent="COYKUvPmXzoca91hGqGe-4" target="COYKUvPmXzoca91hGqGe-6">
          <mxGeometry width="50" height="50" relative="1" as="geometry">
            <mxPoint x="110" y="190" as="sourcePoint" />
            <mxPoint x="160" y="140" as="targetPoint" />
            <Array as="points">
              <mxPoint x="110" y="40" />
            </Array>
          </mxGeometry>
        </mxCell>
        <mxCell id="COYKUvPmXzoca91hGqGe-46" value="time expires" style="edgeLabel;html=1;align=center;verticalAlign=middle;resizable=0;points=[];" vertex="1" connectable="0" parent="COYKUvPmXzoca91hGqGe-45">
          <mxGeometry x="0.3203" y="-1" relative="1" as="geometry">
            <mxPoint as="offset" />
          </mxGeometry>
        </mxCell>
        <mxCell id="COYKUvPmXzoca91hGqGe-49" value="" style="endArrow=none;dashed=1;html=1;rounded=0;" edge="1" parent="COYKUvPmXzoca91hGqGe-4">
          <mxGeometry width="50" height="50" relative="1" as="geometry">
            <mxPoint x="108" y="180" as="sourcePoint" />
            <mxPoint x="950" y="210" as="targetPoint" />
            <Array as="points">
              <mxPoint x="150" y="10" />
            </Array>
          </mxGeometry>
        </mxCell>
        <mxCell id="COYKUvPmXzoca91hGqGe-50" value="" style="endArrow=none;dashed=1;html=1;rounded=0;" edge="1" parent="COYKUvPmXzoca91hGqGe-4">
          <mxGeometry width="50" height="50" relative="1" as="geometry">
            <mxPoint x="106" y="190" as="sourcePoint" />
            <mxPoint x="1110" y="140" as="targetPoint" />
            <Array as="points">
              <mxPoint x="300" y="10" />
            </Array>
          </mxGeometry>
        </mxCell>
        <mxCell id="COYKUvPmXzoca91hGqGe-17" value="" style="ellipse;html=1;shape=startState;fillColor=#000000;strokeColor=#ff0000;" vertex="1" parent="1">
          <mxGeometry x="-20" y="290" width="30" height="30" as="geometry" />
        </mxCell>
        <mxCell id="COYKUvPmXzoca91hGqGe-18" value="" style="edgeStyle=orthogonalEdgeStyle;html=1;verticalAlign=bottom;endArrow=open;endSize=8;strokeColor=#000000;rounded=0;entryX=0;entryY=0.5;entryDx=0;entryDy=0;" edge="1" parent="1" target="COYKUvPmXzoca91hGqGe-4">
          <mxGeometry relative="1" as="geometry">
            <mxPoint x="-30" y="435" as="targetPoint" />
            <mxPoint x="-10" y="310" as="sourcePoint" />
            <Array as="points">
              <mxPoint x="-10" y="311" />
              <mxPoint x="-29" y="311" />
              <mxPoint x="-29" y="415" />
            </Array>
          </mxGeometry>
        </mxCell>
        <mxCell id="COYKUvPmXzoca91hGqGe-29" value="features" style="swimlane;whiteSpace=wrap;html=1;" vertex="1" parent="1">
          <mxGeometry x="950" y="690" width="440" height="260" as="geometry" />
        </mxCell>
        <mxCell id="COYKUvPmXzoca91hGqGe-30" value="emergency vehicles preemption&lt;div&gt;adaptative traffic control&amp;nbsp;&lt;/div&gt;&lt;div&gt;pedestrian&amp;nbsp; crossing signals&lt;/div&gt;&lt;div&gt;night mode&lt;/div&gt;&lt;div&gt;maintance alerts&lt;/div&gt;" style="text;html=1;align=center;verticalAlign=middle;resizable=0;points=[];autosize=1;strokeColor=#82b366;fillColor=#d5e8d4;" vertex="1" parent="1">
          <mxGeometry x="975" y="758" width="190" height="90" as="geometry" />
        </mxCell>
        <mxCell id="COYKUvPmXzoca91hGqGe-32" value="" style="endArrow=classic;html=1;rounded=0;" edge="1" parent="1">
          <mxGeometry width="50" height="50" relative="1" as="geometry">
            <mxPoint x="1165" y="640" as="sourcePoint" />
            <mxPoint x="1255" y="690" as="targetPoint" />
          </mxGeometry>
        </mxCell>
        <mxCell id="COYKUvPmXzoca91hGqGe-33" value="" style="endArrow=classic;html=1;rounded=0;exitX=0.25;exitY=1;exitDx=0;exitDy=0;" edge="1" parent="1" source="COYKUvPmXzoca91hGqGe-6">
          <mxGeometry width="50" height="50" relative="1" as="geometry">
            <mxPoint x="510" y="580" as="sourcePoint" />
            <mxPoint x="1280" y="680" as="targetPoint" />
            <Array as="points">
              <mxPoint x="730" y="470" />
              <mxPoint x="1060" y="450" />
            </Array>
          </mxGeometry>
        </mxCell>
        <mxCell id="COYKUvPmXzoca91hGqGe-34" value="" style="endArrow=classic;html=1;rounded=0;entryX=0.927;entryY=0.008;entryDx=0;entryDy=0;entryPerimeter=0;" edge="1" parent="1" target="COYKUvPmXzoca91hGqGe-29">
          <mxGeometry width="50" height="50" relative="1" as="geometry">
            <mxPoint x="810" y="300" as="sourcePoint" />
            <mxPoint x="1380" y="530" as="targetPoint" />
            <Array as="points">
              <mxPoint x="1358" y="270" />
            </Array>
          </mxGeometry>
        </mxCell>
        <mxCell id="COYKUvPmXzoca91hGqGe-37" value="time expires" style="text;html=1;align=center;verticalAlign=middle;resizable=0;points=[];autosize=1;strokeColor=none;fillColor=none;" vertex="1" parent="1">
          <mxGeometry x="235" y="558" width="90" height="30" as="geometry" />
        </mxCell>
        <mxCell id="COYKUvPmXzoca91hGqGe-38" value="" style="endArrow=none;dashed=1;html=1;rounded=0;exitX=0.195;exitY=-0.011;exitDx=0;exitDy=0;exitPerimeter=0;" edge="1" parent="1" source="COYKUvPmXzoca91hGqGe-30">
          <mxGeometry width="50" height="50" relative="1" as="geometry">
            <mxPoint x="840" y="710" as="sourcePoint" />
            <mxPoint x="880" y="640" as="targetPoint" />
          </mxGeometry>
        </mxCell>
        <mxCell id="COYKUvPmXzoca91hGqGe-51" value="&lt;h1 style=&quot;margin-top: 0px;&quot;&gt;mutesa musoni kenny elvis&amp;nbsp;&lt;/h1&gt;&lt;div&gt;25131&lt;/div&gt;&lt;div&gt;&lt;br&gt;&lt;/div&gt;" style="text;html=1;whiteSpace=wrap;overflow=hidden;rounded=0;" vertex="1" parent="1">
          <mxGeometry x="670" y="20" width="550" height="120" as="geometry" />
        </mxCell>
      </root>
    </mxGraphModel>
  </diagram>
</mxfile>
